<?xml version="1.0" encoding="iso-8859-1"?>
<!-- Generator: Adobe Illustrator 19.0.0, SVG Export Plug-In . SVG Version: 6.00 Build 0)  -->
<svg version="1.1" id="Capa_1" xmlns="http://www.w3.org/2000/svg" xmlns:xlink="http://www.w3.org/1999/xlink" x="0px" y="0px"
	 viewBox="0 0 512 512" style="enable-background:new 0 0 512 512;" xml:space="preserve">
<circle style="fill:#C9F3FF;" cx="256" cy="256" r="246"/>
<g>
	<path style="fill:#A0E557;" d="M10,256c0,79.869,38.073,150.836,97.049,195.775l19.004-46.359
		c1.286-3.248,1.946-6.711,1.946-10.204v-41.487C128,338.413,115.587,326,100.275,326c-6.63,0-13.042-2.372-18.076-6.687l0,0
		c-9.784-8.387-12.515-22.402-6.594-33.849l1.299-2.512c2.363-4.569,3.596-9.637,3.596-14.781l0,0
		C80.5,250.404,94.904,236,112.672,236h50.35c10.79,0,21.057-4.653,28.17-12.766l38.221-43.596
		c8.474-9.666,8.923-23.978,1.072-34.156l-5.411-7.014C219.982,131.866,212.117,128,203.78,128h-18.62
		c-9.945,0-19.078-5.488-23.747-14.269L143,79.098H85.077C38.791,123.829,10,186.548,10,256z"/>
	<path style="fill:#A0E557;" d="M350.733,28.915l-14.4,1.689l-34.18,72.775c-4.855,10.337-2.708,22.608,5.367,30.683l12.669,12.669
		c3.508,3.508,8.265,5.478,13.225,5.478h8.048c4.96,0,9.718,1.97,13.225,5.478l34.147,34.147l-29.838,29.839
		c-7.304,7.304-7.304,19.146,0,26.45l0,0c4.921,4.921,6.703,12.168,4.625,18.81l-3.615,11.554
		c-2.078,6.642-0.297,13.889,4.625,18.81L391,323.667h35.333l47.333,38.667c0,0,1.91-0.851,5.369-2.454
		C493.761,328.319,502,293.124,502,256C502,153.713,439.567,66.017,350.733,28.915z"/>
	<path style="fill:#A0E557;" d="M245.489,501.761l25.084-0.203c60.244-3.52,114.665-28.708,155.575-67.899l-1.098-6.583
		l-61.603-61.603l-70.676-13.371L256,388.874v61.603l-37.761,48.64C227.171,500.492,236.266,501.374,245.489,501.761z"/>
</g>
<g>
	<circle style="fill:#FE8F8D;" cx="123" cy="165.67" r="24"/>
	<circle style="fill:#FE8F8D;" cx="371.51" cy="106.61" r="24"/>
	<circle style="fill:#FE8F8D;" cx="425.05" cy="256.13" r="24"/>
	<circle style="fill:#FE8F8D;" cx="318.92" cy="424.5" r="24"/>
</g>
<path d="M437.02,74.981C388.667,26.628,324.38,0,256,0C194.427,0,134.919,22.178,88.44,62.449
	c-3.488,3.022-6.875,6.141-10.181,9.333c-0.133,0.124-0.265,0.248-0.392,0.379C37.792,111.009,11.351,161.947,2.939,217.09
	c-0.833,5.459,2.918,10.561,8.378,11.394c5.45,0.829,10.561-2.918,11.394-8.378c7.781-51.008,32.143-96.398,67.026-131.007h47.255
	l15.593,29.327C159.003,130.5,171.485,138,185.16,138h18.62c5.2,0,10.2,2.458,13.376,6.576l5.411,7.013
	c4.919,6.377,4.637,15.4-0.673,21.456l-38.222,43.597c-5.214,5.947-12.741,9.358-20.65,9.358h-50.351
	C89.418,226,70.5,244.918,70.5,268.172c0,3.529-0.857,7.051-2.479,10.188l-1.298,2.511c-8.092,15.643-4.404,34.574,8.969,46.036
	c6.842,5.864,15.572,9.094,24.583,9.094c9.773,0,17.726,7.952,17.726,17.726v41.487c0,2.243-0.419,4.438-1.244,6.523l-13.606,34.375
	c-40.952-34.717-70.026-83.419-79.725-139.818c-0.937-5.443-6.107-9.1-11.55-8.161c-5.443,0.936-9.097,6.107-8.161,11.55
	c10.105,58.764,40.818,112.524,86.481,151.375C136.385,490.357,195.269,512,256,512c68.38,0,132.667-26.628,181.02-74.981
	C485.371,388.667,512,324.38,512,256S485.371,123.333,437.02,74.981z M492,256c0,32.945-6.796,64.33-19.043,92.841l-40.298-32.919
	c-1.785-1.458-4.021-2.255-6.326-2.255h-31.19L371.7,290.224c-2.298-2.297-3.123-5.651-2.152-8.752l3.615-11.555
	c3.2-10.228,0.48-21.289-7.098-28.868c-1.644-1.644-2.549-3.829-2.549-6.153c0-2.325,0.905-4.51,2.55-6.154l29.838-29.838
	c3.905-3.905,3.905-10.237,0-14.142l-34.147-34.148c-5.422-5.421-12.629-8.406-20.295-8.406h-8.048
	c-2.325,0-4.511-0.905-6.154-2.549l-12.669-12.668c-5.079-5.079-6.44-12.86-3.386-19.361l33.099-70.474
	C430.813,72.188,492,157.077,492,256z M236.763,491.216l27.106-34.57c1.381-1.761,2.131-3.933,2.131-6.17v-57.461l30.104-30.104
	l62.453,11.815l55.962,55.962C372.597,468.766,316.961,492,256,492C249.528,492,243.115,491.726,236.763,491.216z M428.736,416.62
	l-58.218-58.217c-1.421-1.421-3.237-2.381-5.212-2.754l-70.677-13.371c-3.25-0.615-6.593,0.417-8.931,2.754l-36.771,36.771
	c-1.875,1.875-2.929,4.419-2.929,7.071v58.15l-30.819,39.306c-0.484,0.617-0.875,1.277-1.192,1.959
	c-34.557-6.174-66.645-19.844-94.378-39.423l15.741-39.767c1.758-4.439,2.648-9.11,2.648-13.885v-41.487
	C138,332.924,121.076,316,100.274,316c-4.24,0-8.348-1.52-11.567-4.279c-6.293-5.393-8.028-14.301-4.22-21.663l1.298-2.51
	c3.085-5.962,4.715-12.662,4.715-19.375c0-12.226,9.946-22.172,22.172-22.172h50.351c13.67,0,26.678-5.895,35.689-16.174
	l38.222-43.597c11.594-13.224,12.212-32.93,1.47-46.857l-5.411-7.013c-6.936-8.992-17.856-14.36-29.213-14.36h-18.62
	c-6.262,0-11.978-3.434-14.917-8.963l-18.414-34.633c-1.735-3.265-5.132-5.306-8.829-5.306h-30.377
	C152.769,38.262,202.757,20,256,20c24.134,0,47.43,3.649,69.375,10.411l-32.272,68.716c-6.626,14.105-3.674,30.986,7.346,42.006
	l12.669,12.669c5.422,5.421,12.63,8.407,20.297,8.407h8.048c2.324,0,4.51,0.905,6.153,2.549l27.076,27.076l-22.767,22.767
	c-5.422,5.421-8.408,12.629-8.408,20.296c0,7.667,2.986,14.875,8.407,20.295c2.298,2.298,3.122,5.652,2.151,8.753L350.46,275.5
	c-3.2,10.228-0.48,21.289,7.098,28.867l26.371,26.371c1.876,1.875,4.419,2.929,7.071,2.929h31.768l41.253,33.699
	C454.383,385.294,442.493,401.836,428.736,416.62z"/>
<path d="M20,256l0.002-0.97c0.017-5.523-4.448-10.013-9.971-10.029c-0.01,0-0.02,0-0.03,0c-5.509,0-9.982,4.458-9.999,9.971L0,256
	c0,5.523,4.478,10,10,10S20,261.523,20,256z"/>
<path d="M157,165.667c0-18.748-15.252-34-34-34s-34,15.252-34,34s15.252,34,34,34S157,184.414,157,165.667z M109,165.667
	c0-7.72,6.28-14,14-14s14,6.28,14,14s-6.28,14-14,14S109,173.386,109,165.667z"/>
<path d="M337.51,106.614c0,18.748,15.252,34,34,34s34-15.252,34-34s-15.252-34-34-34S337.51,87.867,337.51,106.614z M371.51,92.614
	c7.72,0,14,6.28,14,14s-6.28,14-14,14s-14-6.28-14-14S363.79,92.614,371.51,92.614z"/>
<path d="M391.05,256.127c0,18.748,15.252,34,34,34s34-15.252,34-34s-15.252-34-34-34S391.05,237.379,391.05,256.127z
	 M425.05,242.127c7.72,0,14,6.28,14,14c0,7.72-6.28,14-14,14s-14-6.28-14-14S417.33,242.127,425.05,242.127z"/>
<path d="M318.917,390.5c-18.748,0-34,15.252-34,34s15.252,34,34,34s34-15.252,34-34S337.665,390.5,318.917,390.5z M318.917,438.5
	c-7.72,0-14-6.28-14-14s6.28-14,14-14s14,6.28,14,14S326.637,438.5,318.917,438.5z"/>
<path d="M203.717,270H128c-5.522,0-10,4.477-10,10s4.478,10,10,10h75.717c5.522,0,10-4.477,10-10S209.239,270,203.717,270z"/>
<path d="M243.54,290c2.63,0,5.2-1.07,7.06-2.93c1.87-1.86,2.931-4.44,2.931-7.07s-1.061-5.21-2.931-7.07
	c-1.859-1.86-4.43-2.93-7.06-2.93c-2.641,0-5.221,1.07-7.08,2.93c-1.86,1.86-2.93,4.44-2.93,7.07s1.069,5.21,2.93,7.07
	C238.319,288.93,240.899,290,243.54,290z"/>
<path d="M275.833,310h-51.05c-5.522,0-10,4.477-10,10s4.478,10,10,10h51.05c5.522,0,10-4.477,10-10S281.355,310,275.833,310z"/>
<g>
</g>
<g>
</g>
<g>
</g>
<g>
</g>
<g>
</g>
<g>
</g>
<g>
</g>
<g>
</g>
<g>
</g>
<g>
</g>
<g>
</g>
<g>
</g>
<g>
</g>
<g>
</g>
<g>
</g>
</svg>
